<svg width="200" height="77" viewBox="0 0 200 77" fill="none" xmlns="http://www.w3.org/2000/svg">
<path d="M35.0364 40.4176L48.1195 10.4805C44.0738 12.3778 39.6206 13.3645 35.0436 13.3645C30.4667 13.3645 26.0135 12.3778 21.9678 10.4805L35.0436 40.4176H35.0364Z" fill="url(#paint0_linear_31_29)"/>
<path d="M39.1112 39.8449L81.1403 23.3412C75.4501 21.5128 70.2765 18.4701 65.9688 14.3856C61.6611 10.301 58.4449 5.39545 56.5239 0L39.1185 39.8518L39.1112 39.8449Z" fill="url(#paint1_linear_31_29)"/>
<path d="M50.5643 75.9639C52.0124 71.9139 54.4282 68.2226 57.6589 65.1592C60.897 62.0889 64.7826 59.7983 69.0539 58.4322L37.4812 46.0337L50.5571 75.9708L50.5643 75.9639Z" fill="url(#paint2_linear_31_29)"/>
<path d="M21.9604 76.923C26.0062 75.0256 30.4594 74.039 35.0363 74.039C39.6132 74.039 44.0665 75.0256 48.1122 76.923L35.0363 46.9858L21.9604 76.923V76.923Z" fill="url(#paint3_linear_31_29)"/>
<path d="M19.5082 75.964L32.5841 46.0269L1.01135 58.4253C5.28266 59.7984 9.17559 62.089 12.4064 65.1524C15.6444 68.2227 18.0602 71.9071 19.5009 75.9571L19.5082 75.964Z" fill="url(#paint4_linear_31_29)"/>
<path d="M0 56.1071L31.5727 43.7086L0 31.3032C2.00104 35.1394 3.04158 39.3619 3.04158 43.7017C3.04158 48.0415 2.00104 52.2641 0 56.1002V56.1071Z" fill="url(#paint5_linear_31_29)"/>
<path d="M1.01135 28.9781L32.5841 41.3766L19.5082 11.4395C18.0602 15.4895 15.6444 19.1738 12.4136 22.2441C9.17559 25.3144 5.28994 27.6051 1.01863 28.9781H1.01135Z" fill="url(#paint6_linear_31_29)"/>
<path d="M111.418 52.1604H110.399L112.327 48.7175H113.615L115.529 52.1604H114.51L114.045 51.2911H111.891L111.418 52.1604ZM112.24 50.6425H113.688L112.997 49.3592H112.953L112.233 50.6425H112.24Z" fill="white"/>
<path d="M120.506 48.7175V49.4006H118.258V52.1604H117.385V48.7175H120.499H120.506Z" fill="white"/>
<path d="M122.624 52.1604V48.7175H125.098C125.331 48.7175 125.527 48.7382 125.687 48.7865C125.847 48.8348 125.978 48.9038 126.08 48.9935C126.182 49.0901 126.255 49.2143 126.306 49.3661C126.357 49.5179 126.378 49.7042 126.378 49.925C126.378 50.2147 126.335 50.4493 126.247 50.6287C126.16 50.8081 126.022 50.9392 125.84 51.022C125.651 51.1048 125.411 51.1462 125.112 51.1462H123.497V52.1673H122.631L122.624 52.1604ZM123.49 50.4562H124.938C125.083 50.4562 125.192 50.4355 125.28 50.401C125.367 50.3665 125.418 50.3044 125.454 50.2285C125.491 50.1526 125.505 50.0491 125.505 49.918C125.505 49.7387 125.461 49.6076 125.381 49.5179C125.301 49.4351 125.156 49.3937 124.938 49.3937H123.49V50.4493V50.4562Z" fill="white"/>
<path d="M132.636 50.9876C132.636 51.2084 132.614 51.3947 132.571 51.5396C132.527 51.6845 132.454 51.8018 132.36 51.8984C132.265 51.9949 132.127 52.057 131.959 52.0984C131.792 52.1398 131.581 52.1605 131.326 52.1605H129.733C129.493 52.1605 129.282 52.1398 129.114 52.0915C128.947 52.0501 128.809 51.9742 128.7 51.8845C128.59 51.788 128.518 51.6707 128.467 51.5189C128.416 51.3671 128.394 51.1946 128.394 50.9807V49.932C128.394 49.6905 128.416 49.4973 128.467 49.3386C128.518 49.1799 128.59 49.0557 128.692 48.966C128.794 48.8763 128.932 48.8074 129.1 48.766C129.267 48.7246 129.478 48.7039 129.733 48.7039H131.326C131.639 48.7039 131.894 48.7384 132.083 48.8074C132.272 48.8763 132.411 49.0005 132.505 49.1799C132.6 49.3593 132.643 49.6077 132.643 49.9251V50.9738L132.636 50.9876ZM129.253 50.9048C129.253 51.0566 129.274 51.1739 129.318 51.2567C129.362 51.3395 129.427 51.3947 129.522 51.4292C129.616 51.4637 129.755 51.4775 129.937 51.4775H131.086C131.275 51.4775 131.421 51.4637 131.516 51.4292C131.61 51.3947 131.676 51.3395 131.712 51.2567C131.748 51.1739 131.77 51.0566 131.77 50.8979V50.0217C131.77 49.8492 131.748 49.725 131.705 49.6353C131.661 49.5456 131.588 49.4904 131.494 49.4559C131.399 49.4214 131.254 49.4076 131.079 49.4076H129.958C129.776 49.4076 129.631 49.4283 129.536 49.4628C129.442 49.4973 129.369 49.5594 129.325 49.6491C129.282 49.7388 129.26 49.863 129.26 50.0355V50.9117L129.253 50.9048Z" fill="white"/>
<path d="M63.473 46.0821V34.9807H71.9064C72.7942 34.9807 73.5291 35.0704 74.1258 35.2567C74.7224 35.4361 75.1736 35.7328 75.4792 36.1467C75.7848 36.5538 75.9376 37.0989 75.9376 37.7681C75.9376 38.603 75.8285 39.1825 75.6029 39.5068C75.3846 39.8311 75.0062 40.0726 74.4823 40.2313C75.1445 40.4383 75.6247 40.7211 75.9303 41.0799C76.236 41.4387 76.3888 42.0183 76.3888 42.8255C76.3888 43.6327 76.2505 44.2468 75.9667 44.7229C75.6829 45.2058 75.2609 45.5508 74.6788 45.7647C74.1039 45.9786 73.369 46.089 72.474 46.089H63.4657L63.473 46.0821ZM66.2744 37.0782V39.4723H71.9865C72.3503 39.4723 72.6414 39.355 72.8524 39.1135C73.0634 38.8721 73.1653 38.5616 73.1653 38.1821C73.1653 37.8371 73.0634 37.568 72.8524 37.3749C72.6414 37.1748 72.3503 37.0782 71.9647 37.0782H66.2672H66.2744ZM66.2744 41.4456V43.9846H71.8846C72.3794 43.9846 72.7505 43.9432 72.9906 43.8673C73.2308 43.7914 73.3908 43.6603 73.4709 43.481C73.5509 43.3016 73.5873 43.0394 73.5873 42.6944C73.5873 42.377 73.5509 42.1355 73.4854 41.9631C73.4127 41.7906 73.2671 41.6664 73.0416 41.5767C72.816 41.487 72.4595 41.4456 71.9865 41.4456H66.2744V41.4456Z" fill="white"/>
<path d="M90.7307 46.0821V37.1886H90.3451L83.3087 46.0821H78.4989V34.9807H81.3004V43.8742H81.686L88.8243 34.9807H93.5322V46.0821H90.7307Z" fill="white"/>
<path d="M95.1984 34.9807H107.83V37.1886H102.89V46.0821H100.088V37.1886H95.1984V34.9807V34.9807Z" fill="white"/>
<path d="M106.899 52.0364H103.632L113.208 34.9807H117.355L123.511 46.0821H120.222L118.723 43.2878H111.796L106.906 52.0433L106.899 52.0364ZM112.917 41.1903H117.588L115.362 37.0644H115.231L112.917 41.1903V41.1903Z" fill="white"/>
<path d="M131.974 43.2878H125.047L123.548 46.0821H120.259L126.415 34.9807H130.562L139.876 52.0364H136.609L131.981 43.2809L131.974 43.2878ZM128.532 37.0644H128.401L126.175 41.1903H130.846L128.532 37.0644V37.0644Z" fill="white"/>
<path d="M156.94 46.0821H154.138V37.1886H153.767L149.75 46.0821H145.77L141.753 37.1886H141.382V46.0821H138.581V34.9807H143.791L147.677 43.8742H147.844L151.722 34.9807H156.932V46.0821H156.94Z" fill="white"/>
<path d="M171.449 46.0821V37.1886H171.063L164.027 46.0821H159.217V34.9807H162.019V43.8742H162.404L169.535 34.9807H174.243V46.0821H171.442H171.449Z" fill="white"/>
<path d="M176.535 46.0821V34.9807H179.337V39.2377H186.555V34.9807H189.371V46.0821H186.555V41.4456H179.337V46.0821H176.535Z" fill="white"/>
<path d="M106.142 52.0364V49.6284H63.4728V52.0364H106.142Z" fill="white"/>
<path d="M189.371 52.0432V49.6353H137.962V52.0432H189.371Z" fill="white"/>
<path d="M190.804 33.8422C193.191 31.862 196.364 28.5088 197.506 23.9758C197.506 23.9758 195.207 29.8611 190.484 33.3454C190.484 33.3454 188.156 29.1436 190.237 26.6943C192.318 24.2449 198.787 21.8301 199.034 17.4351C199.034 17.4351 203.684 31.0479 192.58 33.8905C191.998 33.9595 191.43 33.9802 190.797 33.8422H190.804Z" fill="white"/>
<defs>
<linearGradient id="paint0_linear_31_29" x1="34.8545" y1="40.2934" x2="35.0049" y2="13.53" gradientUnits="userSpaceOnUse">
<stop offset="0.05" stop-color="#00AD5E"/>
<stop offset="0.3" stop-color="#00A95B"/>
<stop offset="0.52" stop-color="#009E54"/>
<stop offset="0.72" stop-color="#008C48"/>
<stop offset="0.92" stop-color="#007337"/>
<stop offset="1" stop-color="#006730"/>
</linearGradient>
<linearGradient id="paint1_linear_31_29" x1="38.5218" y1="39.2653" x2="64.5452" y2="12.9052" gradientUnits="userSpaceOnUse">
<stop offset="0.05" stop-color="#00B7F4"/>
<stop offset="0.26" stop-color="#00B4F0"/>
<stop offset="0.44" stop-color="#00ACE5"/>
<stop offset="0.61" stop-color="#009FD3"/>
<stop offset="0.77" stop-color="#008CB9"/>
<stop offset="0.94" stop-color="#007499"/>
<stop offset="1" stop-color="#00698A"/>
</linearGradient>
<linearGradient id="paint2_linear_31_29" x1="37.3866" y1="45.9371" x2="56.5885" y2="66.188" gradientUnits="userSpaceOnUse">
<stop offset="0.05" stop-color="#3371B8"/>
<stop offset="0.27" stop-color="#326EB4"/>
<stop offset="0.46" stop-color="#2F66A9"/>
<stop offset="0.64" stop-color="#2A5997"/>
<stop offset="0.81" stop-color="#24467D"/>
<stop offset="0.98" stop-color="#1C2E5D"/>
<stop offset="1" stop-color="#1B2B59"/>
</linearGradient>
<linearGradient id="paint3_linear_31_29" x1="34.6798" y1="47.0617" x2="34.9676" y2="74.129" gradientUnits="userSpaceOnUse">
<stop offset="0.05" stop-color="#8F59A3"/>
<stop offset="0.29" stop-color="#8B579F"/>
<stop offset="0.51" stop-color="#805196"/>
<stop offset="0.71" stop-color="#6E4786"/>
<stop offset="0.91" stop-color="#553971"/>
<stop offset="1" stop-color="#463164"/>
</linearGradient>
<linearGradient id="paint4_linear_31_29" x1="31.6163" y1="46.1027" x2="13.2262" y2="66.3097" gradientUnits="userSpaceOnUse">
<stop offset="0.05" stop-color="#F24942"/>
<stop offset="0.26" stop-color="#EE4740"/>
<stop offset="0.45" stop-color="#E3443B"/>
<stop offset="0.63" stop-color="#D13F34"/>
<stop offset="0.8" stop-color="#B73729"/>
<stop offset="0.97" stop-color="#972D1B"/>
<stop offset="1" stop-color="#902B18"/>
</linearGradient>
<linearGradient id="paint5_linear_31_29" x1="31.1725" y1="43.3567" x2="3.42767" y2="43.7021" gradientUnits="userSpaceOnUse">
<stop offset="0.06" stop-color="#F98E3D"/>
<stop offset="0.26" stop-color="#F58B3B"/>
<stop offset="0.45" stop-color="#EA8537"/>
<stop offset="0.62" stop-color="#D87B30"/>
<stop offset="0.79" stop-color="#BE6C26"/>
<stop offset="0.95" stop-color="#9E5A1A"/>
<stop offset="1" stop-color="#935416"/>
</linearGradient>
<linearGradient id="paint6_linear_31_29" x1="32.3149" y1="41.6388" x2="13.7504" y2="21.5738" gradientUnits="userSpaceOnUse">
<stop offset="0.05" stop-color="#FFDF2F"/>
<stop offset="0.26" stop-color="#FBDC2D"/>
<stop offset="0.45" stop-color="#F0D328"/>
<stop offset="0.62" stop-color="#DEC41F"/>
<stop offset="0.79" stop-color="#C4B013"/>
<stop offset="0.96" stop-color="#A49604"/>
<stop offset="1" stop-color="#9A8E00"/>
</linearGradient>
</defs>
</svg>
