<svg width="25" height="25" viewBox="0 0 25 25" fill="none" xmlns="http://www.w3.org/2000/svg">
<path d="M17.8339 15.3707C19.6772 12.7206 19.585 9.23632 19.3085 7.82542C18.8477 8.28551 18.1104 8.92961 17.0966 9.94178C16.8017 14.5793 13.103 16.5362 11.2904 16.9349C9.66223 17.2417 5.87129 17.0638 3.73313 13.8984C1.59497 10.7331 2.71935 7.30401 3.54881 5.98512C4.04034 4.94229 5.88973 2.78299 9.35502 2.48855C12.8203 2.1941 15.2227 4.69691 15.9907 5.98512L10.7375 11.138C9.75439 10.1872 7.47492 8.00946 6.22151 6.90528C4.67319 6.16916 3.80402 7.82542 4.65475 8.65357C5.88358 9.84976 8.61773 12.5734 9.72367 13.5304C10.7375 14.4076 11.6559 13.7144 11.9356 13.4384C14.6083 10.8006 20.3039 5.17539 21.7048 3.77676C22.9582 2.37813 21.4283 1.0163 20.138 1.84444L17.8339 4.14482C17.2195 3.10198 15.1428 0.850666 11.7512 0.188157C8.35967 -0.474353 5.48421 0.77092 4.47043 1.47637C3.27232 2.21249 0.722493 4.6049 0.138801 8.10147C-0.598496 12.5182 1.79772 15.6467 2.71934 16.6589C3.64096 17.6711 6.49799 19.6034 9.72367 19.6034C12.9493 19.6034 15.0691 18.0391 15.4377 17.8551C15.4377 18.0759 15.5606 18.3152 15.622 18.4072C16.9738 19.7874 20.0827 22.9527 21.7048 24.5722C24.0641 26.0444 25.7599 23.376 24.6539 21.7197L19.032 16.1068C18.8477 15.9228 18.35 15.5179 17.8339 15.3707Z" fill="white"/>
</svg>
